# xmcd CD database file
#
# Track frame offsets:
#	150
#	2913
#	16035
#	34086
#	56010
#	72695
#	96410
#	116790
#	127984
#	150753
#	171980
#	197096
#	227400
#	251193
#	274573
#	300372
#
# Disc length: 4313 seconds
#
# Revision: 0
# Processed by: cddbd v1.5.1PL0 Copyright (c) Steve Scherf et al.
# Submitted via: CDex 1.51
#
DISCID=cf10d710
DTITLE=DJ Camaral - Salsa Vol. 10
DYEAR=2004
DGENRE=Salsa
TTITLE0=Intro
TTITLE1=Derroche
TTITLE2=20 Años
TTITLE3=Mal Momento
TTITLE4=Volando Van
TTITLE5=Soy Como Soy
TTITLE6=Te Necesito
TTITLE7=Morir De Amor
TTITLE8=Con Los Ojos Cerrados
TTITLE9=Manda El Corazón
TTITLE10=Si Tú No Te Hubieras Ido
TTITLE11=Margarita
TTITLE12=Hola
TTITLE13=Solo Sin Ti
TTITLE14=Necesito Un Amigo
TTITLE15=Eres Tú
EXTD=YEAR: 2004
EXTT0=
EXTT1=
EXTT2=
EXTT3=
EXTT4=
EXTT5=
EXTT6=
EXTT7=
EXTT8=
EXTT9=
EXTT10=
EXTT11=
EXTT12=
EXTT13=
EXTT14=
EXTT15=
PLAYORDER=
